<svg xmlns="http://www.w3.org/2000/svg" xml:space="preserve" style="fill-rule:evenodd;clip-rule:evenodd;stroke-linejoin:round;stroke-miterlimit:2" viewBox="0 0 38 48">
  <path d="M17.133 24.158v-1.524h-2.286a.764.764 0 0 1-.762-.762v-.763h-1.524v-1.524h2.286c.419 0 .762.343.762.762v.762h2.286c.419 0 .762.343.762.763v2.286h-1.524Zm9.144-9.907v3.048a.764.764 0 0 1-.762.762h-3.048a.764.764 0 0 1-.762-.762v-3.048c0-.419.343-.762.762-.762h3.048c.419 0 .762.343.762.762Zm-1.524.762h-1.524v1.524h1.524v-1.524Zm-9.144 9.907v3.048a.764.764 0 0 1-.762.762h-3.048a.765.765 0 0 1-.763-.762V24.92c0-.419.343-.762.763-.762h3.048c.419 0 .762.343.762.762Zm-1.524.762h-1.524v1.524h1.524v-1.524Zm-3.049-8.383v-3.048c0-.419.343-.762.763-.762h3.048c.419 0 .762.343.762.762v3.048a.764.764 0 0 1-.762.762h-3.048a.765.765 0 0 1-.763-.762Zm1.525-.762h1.524v-1.524h-1.524v1.524Zm12.192 6.097h1.524v-3.049h-1.524v3.049Zm-1.524-2.287a.764.764 0 0 0-.762-.762h-3.81v1.524h3.048v1.525h-.762a.764.764 0 0 0-.762.762v2.286h1.524v-1.524h.762a.764.764 0 0 0 .762-.762v-3.049Zm-3.048 6.097a.764.764 0 0 0-.762-.762h-2.286v1.524h1.524v.762c0 .419.343.762.762.762h2.286v-1.524h-1.524v-.762Zm-.762-8.383a.764.764 0 0 0 .762-.762v-2.286h-1.524v1.524h-.762a.764.764 0 0 0-.762.762v2.286h1.524v-1.524h.762Zm5.334 7.621h-.762a.764.764 0 0 0-.762.762v2.286h1.524v-1.524h.762a.764.764 0 0 0 .762-.762v-2.286h-1.524v1.524ZM11.046 34.861a.17.17 0 0 1-.113-.042.166.166 0 0 1-.042-.112c0-.019.005-.035.014-.049l1.598-4.485a.344.344 0 0 1 .091-.147.294.294 0 0 1 .203-.07h1.283c.089 0 .156.024.203.07a.335.335 0 0 1 .091.147l1.605 4.485a.156.156 0 0 1-.042.161.142.142 0 0 1-.105.042h-1.08c-.079 0-.137-.018-.175-.056a.349.349 0 0 1-.077-.105l-.217-.588h-1.689l-.217.588a.349.349 0 0 1-.077.105c-.033.038-.091.056-.175.056h-1.079Zm1.871-1.934h1.044l-.526-1.576-.518 1.576ZM18.969 34.931c-.463 0-.86-.07-1.191-.21a1.73 1.73 0 0 1-.778-.645c-.187-.285-.287-.637-.301-1.058a24.888 24.888 0 0 1 0-1.275c.014-.406.114-.747.301-1.023a1.76 1.76 0 0 1 .792-.624c.336-.14.728-.21 1.177-.21.36 0 .68.042.96.126.28.084.518.199.715.344.201.144.352.308.455.49.108.178.164.362.168.554a.153.153 0 0 1-.049.112.142.142 0 0 1-.105.042h-1.289a.251.251 0 0 1-.112-.021.362.362 0 0 1-.077-.07.864.864 0 0 0-.112-.161.545.545 0 0 0-.204-.155.758.758 0 0 0-.35-.07c-.22 0-.39.056-.512.169-.121.112-.186.289-.196.532a17.29 17.29 0 0 0 0 1.205c.01.267.077.461.203.582.131.117.306.175.526.175a.987.987 0 0 0 .385-.07.582.582 0 0 0 .274-.217.725.725 0 0 0 .098-.393v-.07h-.498a.18.18 0 0 1-.133-.056.188.188 0 0 1-.049-.126v-.652c0-.051.017-.093.049-.126a.185.185 0 0 1 .133-.056h1.843c.052 0 .096.019.133.056a.159.159 0 0 1 .056.126v.855c0 .412-.098.759-.294 1.044a1.847 1.847 0 0 1-.813.652c-.345.15-.747.224-1.205.224ZM22.664 34.861a.184.184 0 0 1-.126-.049.183.183 0 0 1-.056-.133v-4.541c0-.051.019-.093.056-.126a.174.174 0 0 1 .126-.056h3.434c.051 0 .095.019.133.056a.162.162 0 0 1 .056.126v.827a.174.174 0 0 1-.056.126.18.18 0 0 1-.133.056h-2.165v.694h2.011c.051 0 .095.019.133.056a.162.162 0 0 1 .056.126v.757a.183.183 0 0 1-.056.133.195.195 0 0 1-.133.049h-2.011v.708h2.221c.051 0 .096.019.133.056a.183.183 0 0 1 .056.133v.82a.183.183 0 0 1-.056.133.194.194 0 0 1-.133.049h-3.49Z" style="fill-rule:nonzero"/>
  <path d="M34.861 48H2.277A2.278 2.278 0 0 1 0 45.723V2.277A2.278 2.278 0 0 1 2.277 0h23.535c.604 0 1.183.24 1.61.667l9.05 9.049a2.28 2.28 0 0 1 .667 1.611v34.396A2.278 2.278 0 0 1 34.861 48ZM26.102 1.64a.685.685 0 0 0-.29-.063H2.277a.7.7 0 0 0-.7.7v43.446a.7.7 0 0 0 .7.7h32.584a.7.7 0 0 0 .701-.7V11.327c0-.101-.022-.2-.063-.291h-7.995a1.402 1.402 0 0 1-1.402-1.401V1.64Z"/>
</svg>
